<svg width="13" height="13" viewBox="0 0 13 13" fill="none" xmlns="http://www.w3.org/2000/svg">
<path d="M11.8574 1.54883H1.14258C0.513348 1.54883 0 2.06162 0 2.69141V10.3086C0 10.9362 0.511063 11.4512 1.14258 11.4512H11.8574C12.4851 11.4512 13 10.9401 13 10.3086V2.69141C13 2.06375 12.4889 1.54883 11.8574 1.54883ZM11.6996 2.31055L6.52422 7.48599L1.30404 2.31055H11.6996ZM0.761719 10.1509V2.8455L4.43013 6.48246L0.761719 10.1509ZM1.30033 10.6895L4.97105 7.01873L6.25727 8.2939C6.40616 8.44152 6.64643 8.44104 6.79471 8.29273L8.04883 7.03861L11.6997 10.6895H1.30033ZM12.2383 10.1508L8.58744 6.5L12.2383 2.84913V10.1508Z" fill="#888888"/>
</svg>
