<svg width="13" height="13" viewBox="0 0 13 13" fill="none" xmlns="http://www.w3.org/2000/svg">
<path d="M12.6658 9.58834L11.0497 7.97226C10.6041 7.52673 9.87905 7.52673 9.4335 7.97226L8.69889 8.70683C8.36133 9.04438 7.81206 9.04427 7.47463 8.70696L4.2905 5.52026C3.95216 5.18193 3.95211 4.63433 4.2905 4.29594C4.40883 4.17762 4.7486 3.83787 5.02511 3.56137C5.46873 3.11779 5.47493 2.39505 5.02468 1.94487L3.40895 0.334293C2.96338 -0.111236 2.23837 -0.111236 1.79399 0.333125C1.46146 0.662747 1.3542 0.769083 1.2051 0.916882C-0.401688 2.52358 -0.401688 5.13787 1.20503 6.74452L6.25016 11.7921C7.86071 13.4026 10.4674 13.4027 12.0781 11.7921L12.6658 11.2044C13.1114 10.7589 13.1114 10.0339 12.6658 9.58834ZM2.33153 0.872981C2.48005 0.724471 2.72167 0.724446 2.87067 0.873387L4.4864 2.48397C4.63527 2.63283 4.63527 2.87376 4.4864 3.02265L4.21702 3.292L2.06355 1.13862L2.33153 0.872981ZM6.78898 11.2535L1.74381 6.20585C0.500684 4.96278 0.432355 3.01087 1.53367 1.68617L3.6809 3.8333C3.11669 4.47287 3.14021 5.44744 3.75167 6.05887L6.93569 9.24542C6.93571 9.24544 6.93576 9.2455 6.93579 9.24552C7.54659 9.85632 8.52115 9.88135 9.16153 9.31641L11.3088 11.4636C9.98826 12.563 8.04066 12.5051 6.78898 11.2535ZM12.1271 10.6657L11.8578 10.9351L9.70288 8.78029L9.97221 8.51094C10.1208 8.36243 10.3624 8.36241 10.5109 8.51094L12.1271 10.127C12.2756 10.2756 12.2756 10.5172 12.1271 10.6657Z" fill="#888888"/>
</svg>
