<svg width="25" height="25" viewBox="0 0 25 25" fill="none" xmlns="http://www.w3.org/2000/svg">
<g clip-path="url(#clip0)">
<path d="M18.0678 13.4463C20.6264 15.3495 24.3667 18.1707 24.3677 18.1707L25 17.3326C25 17.3326 21.2566 14.5082 18.6959 12.6039C16.6729 11.0998 16.738 9.04745 16.7916 7.39843C16.7989 7.15895 16.8063 6.93208 16.8063 6.72308C16.8063 4.66649 15.0092 0.421036 9.45396 0.421036C4.34404 0.421085 3.37456 1.37584 3.19598 1.78651C3.08151 2.04593 3.19598 2.34951 3.45225 2.47132C3.48376 2.48604 6.61376 3.96593 8.67768 5.08455C9.18917 5.36184 9.50428 5.72317 9.64085 6.18952C9.92971 7.17367 9.35938 8.43201 8.99278 9.09476C7.96766 10.9528 6.84378 11.5494 5.45418 10.9654C3.30203 10.0611 0.771764 8.88473 0.746556 8.87316C0.579551 8.7965 0.384188 8.81225 0.229788 8.91515C0.0764221 9.0181 -0.0096894 9.19456 0.000797589 9.37939C0.0102507 9.54427 0.267601 13.4411 3.33669 16.0511C4.75677 17.259 6.68096 17.7516 9.97905 17.7516C12.5051 17.7516 14.8694 19.7095 14.9157 19.7473L21.2177 24.4738C21.3122 24.5442 21.4236 24.5788 21.5328 24.5788C21.6914 24.5788 21.8489 24.5064 21.954 24.3687C22.1273 24.1366 22.08 23.8079 21.8479 23.6335L15.569 18.9259C15.4619 18.8346 12.8938 16.7013 9.9791 16.7013C6.95515 16.7013 5.22839 16.2812 4.01633 15.2508C2.14147 13.6564 1.44195 11.456 1.18883 10.2323C2.12784 10.6608 3.6645 11.3519 5.04883 11.9338C6.97622 12.7458 8.61264 11.9601 9.91297 9.60311C10.456 8.61896 11.0243 7.17682 10.6493 5.89436C10.4329 5.15599 9.93818 4.57305 9.17879 4.1613C7.77762 3.4019 5.89646 2.48077 4.7999 1.9514C5.49839 1.72768 6.86382 1.47141 9.45396 1.47141C14.6857 1.47141 15.756 5.61397 15.756 6.72313C15.756 6.92164 15.7487 7.13694 15.7413 7.36382C15.6867 9.05695 15.6047 11.6145 18.0678 13.4463Z" fill="black"/>
<path d="M9.19977 7.70207L8.99598 5.06885C8.93715 4.32417 8.4834 3.66137 7.81017 3.33894L5.42799 2.19935C4.75471 1.87691 3.9512 1.93782 3.33783 2.36109L1.1594 3.85364C0.542829 4.27484 0.196217 4.99957 0.254018 5.74528L0.457801 8.3785C0.516636 9.12318 0.970383 9.78597 1.64362 10.1084L4.02579 11.248C4.3115 11.3857 4.62133 11.4529 4.93013 11.4529C5.3471 11.4529 5.76304 11.3289 6.11595 11.0863L8.29434 9.59376C8.91091 9.17152 9.25752 8.44679 9.19977 7.70207ZM7.70091 8.72615L5.52144 10.2197C5.21579 10.4319 4.81773 10.4634 4.47845 10.3006L2.09628 9.16099C1.76124 9.00029 1.53328 8.66943 1.50389 8.29761L1.29907 5.66439C1.27175 5.29257 1.44402 4.9302 1.75179 4.72012L3.93229 3.22653C4.24006 3.01645 4.63812 2.98494 4.97528 3.14564L7.35642 4.28528C7.69358 4.44598 7.92045 4.77684 7.94985 5.14866L8.15363 7.78188C8.1809 8.15374 8.00868 8.51611 7.70091 8.72615Z" fill="black"/>
<path d="M4.72737 4.62239C3.56883 4.62239 2.62668 5.56455 2.62668 6.72309C2.62668 7.88163 3.56883 8.82378 4.72737 8.82378C5.88483 8.82378 6.82807 7.88163 6.82807 6.72309C6.82807 5.56455 5.88592 4.62239 4.72737 4.62239ZM4.72737 7.77341C4.14759 7.77341 3.67705 7.30179 3.67705 6.72309C3.67705 6.14433 4.14759 5.67276 4.72737 5.67276C5.30613 5.67276 5.7777 6.14438 5.7777 6.72309C5.77775 7.30179 5.30716 7.77341 4.72737 7.77341Z" fill="black"/>
</g>
<defs>
<clipPath id="clip0">
<rect width="25" height="25" fill="white"/>
</clipPath>
</defs>
</svg>
