<svg width="25" height="25" viewBox="0 0 25 25" fill="none" xmlns="http://www.w3.org/2000/svg">
<path d="M24.7777 5.30244C24.6389 5.20478 24.4608 5.18085 24.3012 5.23989L20.0552 6.78408C19.5288 6.97534 19.1096 7.36088 18.8751 7.86948C18.8312 7.96484 18.8023 8.06391 18.7734 8.16284C18.0443 7.95556 16.6894 7.52265 15.3428 6.82885C13.308 5.78037 11.7534 6.29824 10.4201 7.31523C9.74453 7.32851 8.81338 7.40839 7.89805 7.48906C7.31416 7.54057 6.76235 7.58798 6.31489 7.61528C6.30391 7.34653 6.24102 7.07983 6.125 6.82788C5.89053 6.31923 5.47144 5.93369 4.94497 5.74248L0.698877 4.19819C0.539697 4.13969 0.360644 4.16362 0.222314 4.26074C0.0829102 4.35844 0 4.51762 0 4.68749V15.1041C0 15.392 0.232959 15.625 0.52085 15.625H2.04214C2.68916 15.625 3.29111 15.3198 3.68022 14.827C3.8875 14.9847 4.13301 15.1692 4.39048 15.3625C4.99829 15.8198 5.66357 16.3187 5.95552 16.5634C7.89492 18.187 10.2265 19.9402 10.6908 20.2454C11.1247 20.5302 11.9059 20.8333 12.5 20.8333C12.7324 20.8333 13.3179 20.8333 13.7289 20.4859C14.1525 20.6522 14.6093 20.6441 15.034 20.4569C15.4577 20.2703 15.8005 19.9183 15.9999 19.4905C16.4067 19.5739 16.8742 19.5129 17.2979 19.3003C17.6951 19.1014 17.9875 18.8003 18.1442 18.4483C18.5206 18.4829 18.9224 18.3603 19.282 18.0852C19.7957 17.6924 20.031 17.1124 19.9645 16.5403L21.2856 15.8094C21.6725 16.3338 22.2874 16.6666 22.9578 16.6666H24.4791C24.767 16.6666 24.9999 16.4336 24.9999 16.1458V5.72919C25 5.55927 24.9171 5.40009 24.7777 5.30244ZM3.01768 13.9074C2.86611 14.3117 2.47397 14.5833 2.04214 14.5833H1.04165V5.4311L4.58882 6.72099C4.85229 6.81713 5.06186 7.00991 5.17881 7.2642C5.29629 7.5185 5.30649 7.80336 5.2083 8.06528L3.01768 13.9074ZM18.6498 17.2577C18.4733 17.393 18.2261 17.4683 18.1163 17.3584C18.1106 17.3528 18.102 17.3534 18.0962 17.348C18.0862 17.3388 18.0813 17.3263 18.0705 17.3177C17.6982 17.0237 16.0299 15.3168 14.9989 14.2415C14.8 14.0335 14.47 14.0259 14.2629 14.2258C14.0549 14.4247 14.0478 14.7542 14.2472 14.9618C14.4892 15.2144 16.4317 17.2375 17.2092 17.9451C17.1512 18.1738 16.9392 18.315 16.8315 18.369C16.4979 18.5364 16.15 18.5084 16.0197 18.3874C16.0159 18.3837 16.0101 18.3839 16.0061 18.3804C15.9998 18.3748 15.9969 18.3668 15.9902 18.3614C15.3656 17.8624 13.7985 16.1972 13.444 15.8117C13.2492 15.5996 12.9201 15.5863 12.708 15.7807C12.4964 15.9755 12.4822 16.3051 12.677 16.5166C12.6941 16.5352 14.2298 18.1917 15.0924 18.9612C15.0076 19.2048 14.8349 19.4065 14.6133 19.5043C14.4498 19.577 14.194 19.6142 13.9018 19.3982C13.1539 18.7641 11.6528 17.1663 11.3576 16.8503C11.1618 16.6397 10.8312 16.6291 10.6216 16.8254C10.4116 17.0217 10.4004 17.3513 10.5967 17.5614C10.9467 17.936 11.9812 19.0325 12.7677 19.7749C12.6798 19.7856 12.5876 19.7917 12.5 19.7917C12.1551 19.7917 11.5626 19.5715 11.263 19.3746C10.8979 19.1345 8.60493 17.4235 6.62485 15.7654C6.32529 15.5141 5.6417 14.9999 5.01606 14.5299C4.68076 14.2782 4.37183 14.0461 4.14414 13.871L6.09424 8.67001C6.60044 8.6479 7.27529 8.58955 7.9895 8.52656C8.39346 8.49096 8.79785 8.45625 9.18428 8.42617C8.59033 9.03588 7.70727 10.1279 7.82368 11.1516C7.8771 11.6175 8.13193 12.0056 8.56172 12.2741C9.41265 12.8066 10.9879 12.3601 11.7467 11.4268C12.2365 11.3561 12.5677 11.231 12.9288 11.0519C13.5391 11.6256 14.3575 12.3001 15.2171 13.0086C16.7135 14.2415 18.4097 15.6392 18.8583 16.423C19.1081 16.8589 18.7617 17.1723 18.6498 17.2577ZM19.5433 15.5827C18.8494 14.6544 17.3451 13.4123 15.8793 12.2045C14.9022 11.3993 13.9796 10.6389 13.3891 10.0484C13.2263 9.88667 12.9766 9.85004 12.7751 9.95737C12.2446 10.2417 12.0056 10.3592 11.4064 10.4192C11.2467 10.4354 11.1033 10.524 11.0179 10.6598C10.6094 11.3078 9.47417 11.616 9.11406 11.3912C8.90957 11.263 8.86992 11.1328 8.85874 11.0336C8.8084 10.5906 9.25698 9.82358 10.0011 9.07895C11.8439 7.23618 13.1612 6.87558 14.8656 7.75449C16.485 8.5894 18.0832 9.06147 18.7541 9.23979C18.7734 9.31782 18.7875 9.39663 18.8161 9.47314L20.8384 14.8663L19.5433 15.5827ZM23.9583 15.625H22.9579C22.526 15.625 22.1339 15.3534 21.9823 14.949L19.7916 9.10747C19.6935 8.84502 19.7037 8.5602 19.8211 8.30586C19.9381 8.05156 20.1477 7.85878 20.4111 7.76264L23.9583 6.47275V15.625H23.9583Z" fill="black"/>
</svg>
