<svg width="25" height="25" viewBox="0 0 25 25" fill="none" xmlns="http://www.w3.org/2000/svg">
<g clip-path="url(#clip0)">
<path d="M15.6913 3.11506C12.9413 1.7255 9.62879 2.2568 7.44856 4.43708C4.91461 6.97097 4.661 11.0113 6.85866 13.8352C6.93635 13.935 7.05246 13.9873 7.16984 13.9873C7.25441 13.9873 7.33962 13.9602 7.41154 13.9042C7.58327 13.7705 7.61413 13.523 7.48054 13.3513C5.52648 10.8405 5.75231 7.24768 8.00578 4.99421C9.94475 3.05514 12.8905 2.58258 15.336 3.81828C15.5301 3.91652 15.7671 3.83849 15.8653 3.6443C15.9634 3.45012 15.8855 3.21315 15.6913 3.11506Z" fill="black"/>
<path d="M18.8373 6.26169C18.7392 6.0675 18.5023 5.98957 18.308 6.08762C18.1138 6.18572 18.0358 6.42263 18.1339 6.61692C19.3687 9.06204 18.8959 12.0074 16.9574 13.9458C14.7039 16.1993 11.1111 16.4251 8.60028 14.4711C8.4285 14.3375 8.18104 14.3684 8.04739 14.54C7.91375 14.7118 7.94466 14.9593 8.11639 15.0929C9.40272 16.094 10.9413 16.5864 12.4751 16.5864C14.3084 16.5864 16.1349 15.8827 17.5146 14.503C19.6943 12.3233 20.2259 9.01136 18.8373 6.26169Z" fill="black"/>
<path d="M17.8194 4.76114C17.7218 4.65069 17.6192 4.54161 17.5146 4.43702C17.41 4.33238 17.3009 4.22984 17.1905 4.13223C17.0274 3.98809 16.7784 4.00352 16.6344 4.16656C16.4902 4.32955 16.5056 4.57852 16.6686 4.72261C16.767 4.80953 16.8642 4.90093 16.9574 4.99415C17.0506 5.08741 17.142 5.18453 17.229 5.28292C17.3068 5.371 17.4153 5.41598 17.5243 5.41598C17.617 5.41598 17.7101 5.38341 17.7851 5.3172C17.9481 5.17315 17.9635 4.92418 17.8194 4.76114Z" fill="black"/>
<path d="M21.7806 10.1764C22.0433 9.7454 22.0433 9.21004 21.7805 8.77914L21.2622 7.92918C21.1939 7.81717 21.1675 7.68416 21.1879 7.55467L21.3424 6.57308C21.4212 6.07283 21.2157 5.57708 20.8062 5.27918L20.0029 4.6949C19.8967 4.6176 19.8212 4.50486 19.7903 4.37722L19.5564 3.41047C19.4376 2.91941 19.0588 2.5406 18.5678 2.42175L17.601 2.18776C17.4733 2.15686 17.3605 2.08137 17.2833 1.97517L16.6989 1.1717C16.4011 0.762224 15.9053 0.556608 15.4052 0.635417L14.4232 0.78991C14.2937 0.810271 14.1607 0.783904 14.0488 0.715642L13.1987 0.197184C12.7677 -0.0656099 12.2323 -0.065561 11.8014 0.197184L10.9514 0.715495C10.8395 0.783806 10.7065 0.810076 10.5769 0.789763L9.59523 0.635271C9.09513 0.556559 8.59928 0.762077 8.30143 1.17155L7.71715 1.97482C7.63985 2.08103 7.52706 2.15651 7.39937 2.18742L6.43262 2.42136C5.94166 2.54011 5.56275 2.91897 5.4439 3.40998L5.20992 4.37678C5.17901 4.50442 5.10357 4.61726 4.99732 4.69446L4.19385 5.27884C3.78438 5.57664 3.57891 6.07234 3.65757 6.57259L3.81206 7.55457C3.83242 7.68411 3.80606 7.81712 3.73779 7.92904L3.21939 8.77918C2.95669 9.21014 2.95669 9.74549 3.21943 10.1764L3.73775 11.0264C3.80601 11.1384 3.83242 11.2714 3.81201 11.4009L3.65752 12.3826C3.57876 12.8828 3.78428 13.3786 4.19375 13.6764L4.99703 14.2607C5.10323 14.3379 5.17872 14.4507 5.20962 14.5784L5.44356 15.5451C5.56231 16.0362 5.94117 16.415 6.43218 16.5338L6.8359 16.6315L4.10376 22.726C4.04571 22.8555 4.06177 23.0062 4.1459 23.1206C4.22998 23.2349 4.369 23.2952 4.51001 23.2783L6.70836 23.0155L7.97477 24.8315C8.04889 24.9377 8.16983 25.0001 8.29781 25.0001C8.31007 25.0001 8.32247 24.9995 8.33478 24.9984C8.47609 24.9851 8.59938 24.8967 8.65743 24.7673L11.4477 18.5427L11.8013 18.7583C12.0168 18.8897 12.2583 18.9554 12.4999 18.9554C12.7415 18.9554 12.9831 18.8897 13.1986 18.7583L13.5649 18.535L16.3587 24.7673C16.4167 24.8968 16.54 24.9851 16.6813 24.9984C16.6937 24.9995 16.706 25.0001 16.7183 25.0001C16.8463 25.0001 16.9673 24.9377 17.0413 24.8315L18.3077 23.0155L20.5061 23.2784C20.647 23.2951 20.7861 23.235 20.8702 23.1206C20.9543 23.0063 20.9704 22.8556 20.9123 22.726L18.1788 16.6282L18.5673 16.5342C19.0583 16.4155 19.4372 16.0366 19.556 15.5456L19.79 14.5788C19.8209 14.4512 19.8964 14.3383 20.0026 14.2611L20.8061 13.6768C21.2156 13.3789 21.421 12.8832 21.3424 12.383L21.1879 11.401C21.1675 11.2715 21.1939 11.1385 21.2621 11.0266L21.7806 10.1764ZM8.22306 23.8101L7.21944 22.3709C7.13624 22.2516 6.99395 22.1877 6.84952 22.2051L5.10738 22.4134L7.59659 16.8605C7.6421 16.8939 7.68292 16.934 7.71656 16.9804L8.30094 17.7838C8.35646 17.8602 8.41886 17.9293 8.48688 17.991L7.17667 20.9137C7.0877 21.1123 7.17647 21.3453 7.37501 21.4343C7.42735 21.4578 7.48209 21.4689 7.5359 21.4689C7.68639 21.4689 7.83014 21.3822 7.89562 21.236L9.20118 18.3237C9.32965 18.3413 9.46193 18.341 9.59469 18.3201L10.5766 18.1656C10.6354 18.1564 10.6948 18.1572 10.7527 18.1668L8.22306 23.8101ZM19.9088 22.4133L18.1666 22.2051C18.0221 22.1878 17.8799 22.2516 17.7967 22.3709L16.7931 23.8101L14.2624 18.1646C14.3155 18.1574 14.3696 18.1574 14.4232 18.1658L15.4048 18.3203C15.5429 18.342 15.6805 18.3413 15.8139 18.3214L17.1204 21.2361C17.186 21.3823 17.3297 21.469 17.4802 21.469C17.534 21.469 17.5887 21.4579 17.641 21.4344C17.8396 21.3455 17.9284 21.1123 17.8394 20.9138L16.5242 17.9799C16.5876 17.9211 16.6463 17.8559 16.6986 17.784L17.2828 16.9807C17.3197 16.9301 17.3648 16.8867 17.4155 16.8516L19.9088 22.4133ZM21.1078 9.76615L20.5894 10.6163C20.4241 10.8875 20.3601 11.2097 20.4095 11.5234L20.564 12.5054C20.5965 12.7119 20.5116 12.9165 20.3426 13.0394L19.5391 13.6239C19.2819 13.811 19.099 14.0843 19.0242 14.3934L18.7902 15.3602C18.7411 15.5629 18.5848 15.7193 18.3821 15.7684L17.4153 16.0023C17.1061 16.0771 16.8327 16.26 16.6456 16.5172L16.0614 17.3205C15.9384 17.4896 15.7338 17.5744 15.5272 17.5418L14.5456 17.3874C14.2318 17.338 13.9095 17.4019 13.6383 17.5672L12.7884 18.0856C12.6105 18.194 12.3894 18.194 12.2116 18.0856L11.3614 17.5672C11.15 17.4382 10.9076 17.371 10.6624 17.371C10.593 17.371 10.5234 17.3764 10.4543 17.3873L9.47228 17.5418C9.26574 17.5743 9.06114 17.4894 8.9382 17.3204L8.35377 16.5169C8.16666 16.2598 7.89337 16.0769 7.58424 16.0021L6.61744 15.7681C6.41475 15.719 6.25836 15.5626 6.20928 15.3599L5.97535 14.3932C5.90054 14.084 5.71768 13.8106 5.46041 13.6235L4.65718 13.0392C4.48814 12.9162 4.40332 12.7115 4.43584 12.505L4.59034 11.5234C4.6397 11.2096 4.57583 10.8874 4.41045 10.6162L3.89214 9.7661C3.78369 9.58822 3.78369 9.36717 3.89214 9.18934L4.41055 8.33919C4.57588 8.068 4.6398 7.74583 4.59043 7.43206L4.43594 6.45013C4.40347 6.24363 4.48833 6.03899 4.65733 5.91604L5.46084 5.33162C5.71802 5.14451 5.90093 4.87122 5.97574 4.56209L6.20972 3.59529C6.2588 3.3926 6.41514 3.2362 6.61788 3.18713L7.58468 2.9532C7.89386 2.87839 8.1672 2.69548 8.35426 2.43825L8.93854 1.63498C9.06149 1.46594 9.26608 1.38102 9.47267 1.41359L10.4543 1.56809C10.7682 1.61755 11.0904 1.55358 11.3616 1.3882L12.2115 0.86989C12.3894 0.761492 12.6105 0.761492 12.7883 0.86989L13.6384 1.38825C13.9096 1.55368 14.2319 1.6176 14.5456 1.56818L15.5276 1.41369C15.7341 1.38132 15.9387 1.46608 16.0617 1.63508L16.6461 2.43855C16.8332 2.69572 17.1065 2.87863 17.4157 2.95344L18.3825 3.18742C18.5851 3.2365 18.7415 3.39284 18.7906 3.59558L19.0245 4.56233C19.0993 4.87151 19.2822 5.1449 19.5395 5.33201L20.3428 5.91629C20.5118 6.03924 20.5966 6.24393 20.5641 6.45042L20.4096 7.43206C20.3602 7.74588 20.4241 8.06805 20.5895 8.33929L21.1078 9.18934C21.2163 9.36722 21.2163 9.58827 21.1078 9.76615Z" fill="black"/>
<path d="M17.1102 8.25182C17.0234 7.98453 16.7961 7.79791 16.517 7.76481L14.1463 7.4837L13.1464 5.31597C13.0287 5.0608 12.781 4.90225 12.4999 4.90225C12.2189 4.90225 11.9712 5.0608 11.8534 5.31597L10.8535 7.48375L8.48288 7.76486C8.20378 7.79796 7.97643 7.98458 7.88967 8.25187C7.80285 8.51901 7.87707 8.80363 8.08332 8.9944L9.83601 10.6153L9.37077 12.9568C9.31604 13.2324 9.42326 13.5063 9.65066 13.6714C9.7761 13.7625 9.92165 13.8087 10.0681 13.8087C10.1872 13.8087 10.3069 13.7782 10.4168 13.7167L12.4999 12.5507L14.583 13.7167C14.8283 13.854 15.1218 13.8366 15.3492 13.6715C15.5765 13.5063 15.6838 13.2324 15.629 12.9568L15.1638 10.6153L16.9164 8.99445C17.1228 8.80368 17.197 8.5191 17.1102 8.25182ZM14.4669 10.1865C14.3663 10.2796 14.3213 10.4182 14.348 10.5526L14.8241 12.9486L12.6923 11.7554C12.6325 11.7219 12.5662 11.7052 12.4999 11.7052C12.4335 11.7052 12.3673 11.7219 12.3074 11.7554L10.1757 12.9486L10.6518 10.5526C10.6785 10.4181 10.6335 10.2796 10.5328 10.1865L8.73928 8.52784L11.1654 8.2402C11.3014 8.22408 11.4193 8.13839 11.4767 8.01403L12.4999 5.79571L13.5231 8.01403C13.5805 8.13839 13.6984 8.22408 13.8345 8.2402L16.2605 8.52784L14.4669 10.1865Z" fill="black"/>
</g>
<defs>
<clipPath id="clip0">
<rect width="25" height="25" fill="white"/>
</clipPath>
</defs>
</svg>
