<svg width="25" height="25" viewBox="0 0 25 25" fill="none" xmlns="http://www.w3.org/2000/svg">
<g clip-path="url(#clip0)">
<path d="M24.3568 7.86753C23.5001 7.01079 22.1061 7.01084 21.2491 7.86772C20.9855 8.13154 19.3027 9.81577 19.0456 10.0731V4.26885C19.0456 3.68193 18.817 3.13018 18.402 2.71519L16.3305 0.643555C15.9155 0.228516 15.3637 0 14.7767 0H2.19989C0.988318 0 0.00262451 0.985693 0.00262451 2.19727V22.8027C0.00262451 24.0143 0.988318 25 2.19989 25H16.8483C18.0599 25 19.0456 24.0143 19.0456 22.8027V16.2906L24.3567 10.975C25.2155 10.1163 25.2157 8.72632 24.3568 7.86753ZM14.6511 1.46484C14.7895 1.46484 15.0561 1.44087 15.2947 1.67935L17.3662 3.75098C17.5987 3.98345 17.5808 4.23818 17.5808 4.39453H14.6511V1.46484ZM17.5807 22.8027C17.5807 23.2066 17.2522 23.5352 16.8483 23.5352H2.19989C1.79603 23.5352 1.46747 23.2066 1.46747 22.8027V2.19727C1.46747 1.79341 1.79603 1.46484 2.19989 1.46484H13.1862V5.12695C13.1862 5.53145 13.5141 5.85938 13.9186 5.85938H17.5807V11.5392C17.5807 11.5392 15.4199 13.7019 15.4198 13.702L14.3845 14.7373C14.3041 14.8177 14.2435 14.9157 14.2076 15.0236L13.1717 18.131C13.084 18.3942 13.1525 18.6844 13.3487 18.8805C13.5451 19.077 13.8354 19.1451 14.0982 19.0575L17.2056 18.0217C17.3135 17.9857 17.4115 17.9251 17.4919 17.8447L17.5807 17.7559V22.8027ZM15.9382 15.2552L16.974 16.291L16.5783 16.6867L15.0246 17.2045L15.5425 15.6508L15.9382 15.2552ZM18.0096 15.255L16.9738 14.2192C17.5253 13.6672 19.975 11.2154 20.4945 10.6955L21.5303 11.7312L18.0096 15.255ZM23.3207 9.93936L22.5657 10.695L21.5299 9.65923L22.2852 8.90332C22.5709 8.61772 23.0355 8.61777 23.321 8.90332C23.6065 9.18896 23.608 9.652 23.3207 9.93936Z" fill="black"/>
<path d="M13.9169 7.32422H3.66296C3.25847 7.32422 2.93054 7.65215 2.93054 8.05664C2.93054 8.46113 3.25847 8.78906 3.66296 8.78906H13.9169C14.3214 8.78906 14.6493 8.46113 14.6493 8.05664C14.6493 7.65215 14.3214 7.32422 13.9169 7.32422Z" fill="black"/>
<path d="M10.9872 10.2539H3.66296C3.25847 10.2539 2.93054 10.5818 2.93054 10.9863C2.93054 11.3908 3.25847 11.7188 3.66296 11.7188H10.9872C11.3917 11.7188 11.7196 11.3908 11.7196 10.9863C11.7196 10.5818 11.3917 10.2539 10.9872 10.2539Z" fill="black"/>
<path d="M10.9872 13.1836H3.66296C3.25847 13.1836 2.93054 13.5115 2.93054 13.916C2.93054 14.3205 3.25847 14.6484 3.66296 14.6484H10.9872C11.3917 14.6484 11.7196 14.3205 11.7196 13.916C11.7196 13.5115 11.3917 13.1836 10.9872 13.1836Z" fill="black"/>
<path d="M10.9872 16.1133H3.66296C3.25847 16.1133 2.93054 16.4412 2.93054 16.8457C2.93054 17.2502 3.25847 17.5781 3.66296 17.5781H10.9872C11.3917 17.5781 11.7196 17.2502 11.7196 16.8457C11.7196 16.4412 11.3917 16.1133 10.9872 16.1133Z" fill="black"/>
<path d="M13.9169 20.6055H9.52234C9.11785 20.6055 8.78992 20.9334 8.78992 21.3379C8.78992 21.7424 9.11785 22.0703 9.52234 22.0703H13.9169C14.3214 22.0703 14.6493 21.7424 14.6493 21.3379C14.6493 20.9334 14.3214 20.6055 13.9169 20.6055Z" fill="black"/>
</g>
<defs>
<clipPath id="clip0">
<rect width="25" height="25" fill="white"/>
</clipPath>
</defs>
</svg>
