<?xml version="1.0" encoding="utf-8"?><svg viewBox="0 0 57 57" xmlns="http://www.w3.org/2000/svg" xmlns:xlink="http://www.w3.org/1999/xlink"><style>:root>svg{display:none}:root>svg:target{display:block}</style><svg fill="none" viewBox="0 0 23 13" id="arrow-down" xmlns="http://www.w3.org/2000/svg"><rect x="11.414" y="12.728" width="2" height="16" rx="1" transform="rotate(-135 11.414 12.728)" fill="#F7C955"/><rect x="12.728" y="11.314" width="2" height="16" rx="1" transform="rotate(135 12.728 11.314)" fill="#F7C955"/></svg><svg fill="none" viewBox="0 0 15 25" id="arrow-next" xmlns="http://www.w3.org/2000/svg"><path stroke="#151515" stroke-width="3" d="M1.439 23.939l12.5-12.5M13.939 13.561l-12.5-12.5"/></svg><svg fill="none" viewBox="0 0 15 25" id="arrow-prev" xmlns="http://www.w3.org/2000/svg"><path stroke="#151515" stroke-width="3" d="M13.561 1.061l-12.5 12.5M1.061 11.439l12.5 12.5"/></svg><svg fill="none" viewBox="0 0 57 57" id="border" xmlns="http://www.w3.org/2000/svg"><path fill="#F7CA55" d="M6 57H0V0h6z"/><path fill="#F7CA55" d="M57 0v6H0V0z"/></svg><svg fill="none" viewBox="0 0 13 13" id="calendar-icon" xmlns="http://www.w3.org/2000/svg"><path d="M11.477 1.016h-.61V0H9.852v1.016H3.148V0H2.133v1.016h-.61C.683 1.016 0 1.699 0 2.539v8.938C0 12.317.683 13 1.523 13h9.954c.84 0 1.523-.683 1.523-1.523V2.539c0-.84-.683-1.523-1.523-1.523zm.507 10.46c0 .28-.227.508-.507.508H1.523a.508.508 0 01-.507-.507V4.773h10.968v6.704zm0-7.718H1.016V2.539c0-.28.227-.508.507-.508h.61v1.016h1.015V2.03h6.704v1.016h1.015V2.03h.61c.28 0 .507.228.507.508v1.219z" fill="#888"/></svg><svg fill="none" viewBox="0 0 22 21" id="checkbox" xmlns="http://www.w3.org/2000/svg"><rect x=".063" width="21" height="21" rx="5" fill="#F7C955"/><rect x="5.103" y="10.102" width="2.52" height="6.08" rx="1.26" transform="rotate(-45 5.103 10.102)" fill="#fff"/><rect x="15.21" y="5.04" width="2.518" height="9.857" rx="1.259" transform="rotate(45 15.21 5.04)" fill="#fff"/></svg><svg fill="none" viewBox="0 0 13 13" id="mail-icon" xmlns="http://www.w3.org/2000/svg"><path d="M11.857 1.549H1.143C.513 1.549 0 2.062 0 2.69v7.618c0 .627.511 1.142 1.143 1.142h10.714c.628 0 1.143-.51 1.143-1.142V2.69c0-.627-.511-1.142-1.143-1.142zm-.157.762L6.524 7.486l-5.22-5.175H11.7zM.762 10.15V2.845L4.43 6.482.762 10.151zm.538.539l3.671-3.671 1.286 1.275a.38.38 0 00.538-.001l1.254-1.254 3.65 3.65H1.3zm10.938-.54L8.588 6.5l3.65-3.65v7.3z" fill="#888"/></svg><svg fill="none" viewBox="0 0 14 14" id="marker-icon" xmlns="http://www.w3.org/2000/svg"><path d="M7 0a4.927 4.927 0 00-4.922 4.922c0 .917.254 1.812.735 2.588l3.907 6.296a.41.41 0 00.348.194h.004a.41.41 0 00.348-.2l3.808-6.356c.454-.76.694-1.632.694-2.522A4.927 4.927 0 007 0zm3.524 7.022l-3.462 5.78L3.51 7.078a4.096 4.096 0 01-.617-2.156A4.116 4.116 0 017 .815a4.113 4.113 0 014.104 4.107c0 .741-.202 1.468-.58 2.1z" fill="#888"/><path d="M7 2.46a2.464 2.464 0 00-2.46 2.462A2.458 2.458 0 007 7.382a2.456 2.456 0 002.46-2.46A2.464 2.464 0 007 2.46zm0 4.108c-.91 0-1.646-.74-1.646-1.646 0-.905.741-1.646 1.646-1.646a1.65 1.65 0 011.643 1.646c0 .894-.72 1.646-1.643 1.646z" fill="#888"/></svg><svg fill="none" viewBox="0 0 13 13" id="phone-icon" xmlns="http://www.w3.org/2000/svg"><path d="M12.666 9.588L11.05 7.972a1.144 1.144 0 00-1.617 0l-.734.735a.867.867 0 01-1.224 0L4.29 5.52a.865.865 0 010-1.224l.734-.735a1.142 1.142 0 000-1.616L3.409.335A1.144 1.144 0 001.794.332l-.589.584a4.125 4.125 0 000 5.828l5.045 5.047a4.119 4.119 0 005.828 0l.588-.588a1.144 1.144 0 000-1.616zM2.332.873a.382.382 0 01.539 0l1.615 1.611a.38.38 0 010 .539l-.269.269-2.153-2.153.268-.266zm4.457 10.38L1.744 6.207a3.349 3.349 0 01-.21-4.52L3.68 3.833c-.564.64-.54 1.614.07 2.226l3.185 3.186c.61.611 1.585.636 2.226.071l2.147 2.148a3.343 3.343 0 01-4.52-.21zm5.338-.587l-.27.27L9.704 8.78l.27-.27a.381.381 0 01.538 0l1.616 1.617a.381.381 0 010 .539z" fill="#888"/></svg><svg fill="none" viewBox="0 0 25 25" id="tab-icon-1" xmlns="http://www.w3.org/2000/svg"><path d="M8.333 20.417c-.919 0-1.666.747-1.666 1.666 0 .92.747 1.667 1.666 1.667.92 0 1.667-.747 1.667-1.667 0-.919-.748-1.666-1.667-1.666zm0 2.5a.834.834 0 11.002-1.669.834.834 0 01-.002 1.669zM7.083 2.083H8.75a.417.417 0 100-.833H7.083a.417.417 0 100 .833zM10 2.083h.417a.417.417 0 100-.833H10a.417.417 0 100 .833z" fill="#000"/><path d="M23.333 5h-7.5V1.835A1.838 1.838 0 0013.998 0H3.502a1.838 1.838 0 00-1.835 1.835v21.33c0 1.011.823 1.835 1.835 1.835h10.496a1.838 1.838 0 001.835-1.835V13.75h7.5V5zM3.502.833h10.495c.553 0 1.003.45 1.003 1.002V2.5H2.5v-.665c0-.552.45-1.002 1.002-1.002zm10.496 23.334H3.502c-.552 0-1.002-.45-1.002-1.002V20H15v3.165c0 .552-.45 1.002-1.002 1.002zm1.002-5H2.5V3.333H15V5H7.5v8.75h1.667v2.917l3.888-2.917H15v5.417zm7.5-6.25h-9.722L10 15v-2.083H8.333V5.833H22.5v7.084z" fill="#000"/><path d="M10.417 8.75h4.166a.417.417 0 100-.833h-4.166a.417.417 0 100 .833zM10 10.417c0 .23.187.416.417.416h10a.416.416 0 100-.833h-10a.417.417 0 00-.417.417z" fill="#000"/></svg><svg fill="none" viewBox="0 0 25 25" id="tab-icon-2" xmlns="http://www.w3.org/2000/svg"><g clip-path="url(#kclip0)" fill="#000"><path d="M24.837 5.147L19.853.164a.555.555 0 00-.746-.036l-.006.005a.6.6 0 00-.033.03l-.001.001-1.73 1.73L15.632 3.6l-1.73 1.73-1.295 1.294-3.245-3.251-1.94-1.94A3.478 3.478 0 004.949.41c-.935 0-1.814.364-2.475 1.025l-.52.52-.52.52A3.477 3.477 0 00.408 4.95c0 .935.364 1.814 1.025 2.475L3.37 9.363l3.252 3.245-6.46 6.461a.555.555 0 000 .786l4.983 4.983a.554.554 0 00.785 0l6.467-6.466 4.763 4.753.005.005.05.053c.2.2.599.427 2.141.732 1.913.378 4.51.663 4.62.675l.06.003a.556.556 0 00.551-.616c-.012-.11-.296-2.705-.674-4.618-.305-1.543-.532-1.941-.733-2.141-.017-.018-.035-.034-.053-.051l-.004-.005L18.37 12.4l6.467-6.466a.556.556 0 000-.786zm-5.378-3.804l2.69 2.69-.944.944-2.69-2.69.944-.944zm-3.435 3.435l1.713 1.713-.944.944-1.713-1.713.944-.944zM2.218 6.638a2.374 2.374 0 01-.7-1.689c0-.638.249-1.238.7-1.69l.52-.52.52-.52a2.374 2.374 0 011.69-.7c.638 0 1.238.25 1.69.7l1.545 1.546-4.42 4.42-1.545-1.546zm3.502 8.444l2.69 2.69-.943.944-2.69-2.69.943-.944zm-4.379 4.379l.944-.944 1.713 1.713-.944.943-1.713-1.712zM5.54 23.66l-1.7-1.7 1.337-1.338a.556.556 0 000-.785L3.071 17.73l.92-.92 3.083 3.084a.555.555 0 00.785 0l1.73-1.73a.555.555 0 000-.785l-3.083-3.083.9-.9 4.198 4.198-6.065 6.065zm13.745-.894c-1-.212-1.249-.35-1.293-.38a1.491 1.491 0 01-.042-.044l-.017-.02a1.581 1.581 0 01-.08-.102 1.428 1.428 0 01.15-1.839c.315-.315.75-.461 1.187-.405l1.442 1.442-1.347 1.348zm4.119.638a70.795 70.795 0 01-2.794-.392l2.401-2.401c.17 1.035.31 2.114.393 2.793zm-1.187-5.553l.008.006.043.032.018.015a1.41 1.41 0 01.1.089c.03.043.168.293.38 1.292l-1.348 1.348-1.443-1.443a1.417 1.417 0 01.458-1.237l.003-.002c.5-.45 1.245-.484 1.781-.1zm-1.306-1.334c-.4.077-.784.251-1.117.522l-.017.014-.072.061-.024.023c-.028.024-.055.05-.081.076l-.005.005a2.533 2.533 0 00-.61.981L9.49 8.706a.556.556 0 00-.785.785l9.493 9.494a2.517 2.517 0 00-.982.61l-.004.005a2.563 2.563 0 00-.16.178l-.014.016c-.271.333-.445.718-.522 1.118L4.55 8.969 6.759 6.76l2.21-2.209L20.91 16.517zm-3.317-4.912l-4.198-4.198.9-.9L16.4 8.613a.554.554 0 00.785 0l1.73-1.73a.556.556 0 000-.785L16.81 3.993l.92-.92 3.083 3.083a.554.554 0 00.785 0l1.338-1.338.722.722-6.065 6.065z"/><path d="M8.492 7.838a.539.539 0 00-.152-.283.533.533 0 00-.18-.12.547.547 0 00-.52.051.527.527 0 00-.205.249.542.542 0 00-.032.32.522.522 0 00.083.2.53.53 0 00.25.205.558.558 0 00.604-.12.53.53 0 00.12-.18.52.52 0 00.043-.213.553.553 0 00-.011-.109z"/></g><defs><clipPath id="kclip0"><path fill="#fff" d="M0 0h25v25H0z"/></clipPath></defs></svg><svg fill="none" viewBox="0 0 25 25" id="tab-icon-3" xmlns="http://www.w3.org/2000/svg"><g clip-path="url(#lclip0)" fill="#000"><path d="M24.357 7.868a2.2 2.2 0 00-3.108 0l-2.203 2.205V4.27c0-.587-.229-1.139-.644-1.554L16.33.644A2.183 2.183 0 0014.777 0H2.2A2.2 2.2 0 00.003 2.197v20.606A2.2 2.2 0 002.2 25h14.648a2.2 2.2 0 002.198-2.197V16.29l5.31-5.316a2.196 2.196 0 000-3.107zM14.65 1.465c.139 0 .405-.024.644.214l2.071 2.072c.233.232.215.487.215.644h-2.93v-2.93zm2.93 21.338a.733.733 0 01-.733.732H2.2a.733.733 0 01-.733-.732V2.197c0-.404.329-.732.733-.732h10.986v3.662c0 .404.328.732.733.732h3.662v5.68l-2.161 2.163-1.036 1.035a.732.732 0 00-.176.287l-1.036 3.107a.732.732 0 00.926.927l3.108-1.036a.733.733 0 00.286-.177l.089-.09v5.048zm-1.643-7.548l1.036 1.036-.396.396-1.553.517.518-1.553.395-.396zm2.072 0l-1.036-1.036 3.52-3.524 1.036 1.036-3.52 3.524zm5.31-5.316l-.754.756-1.036-1.036.755-.756a.733.733 0 011.036 1.036z"/><path d="M13.917 7.324H3.663a.732.732 0 000 1.465h10.254a.732.732 0 000-1.465zM10.987 10.254H3.663a.732.732 0 100 1.465h7.324a.732.732 0 000-1.465zM10.987 13.184H3.663a.732.732 0 100 1.464h7.324a.732.732 0 100-1.464zM10.987 16.113H3.663a.732.732 0 100 1.465h7.324a.732.732 0 100-1.465zM13.917 20.605H9.522a.732.732 0 100 1.465h4.395a.732.732 0 100-1.465z"/></g><defs><clipPath id="lclip0"><path fill="#fff" d="M0 0h25v25H0z"/></clipPath></defs></svg><svg fill="none" viewBox="0 0 25 25" id="tab-icon-4" xmlns="http://www.w3.org/2000/svg"><g clip-path="url(#mclip0)" fill="#000"><path d="M15.691 3.115A7.104 7.104 0 007.45 4.437c-2.534 2.534-2.788 6.574-.59 9.398a.393.393 0 10.622-.484 6.335 6.335 0 01.525-8.357 6.317 6.317 0 017.33-1.176.394.394 0 10.355-.703zM18.837 6.262a.394.394 0 00-.703.355 6.318 6.318 0 01-1.177 7.329 6.335 6.335 0 01-8.357.525.394.394 0 00-.484.622 7.08 7.08 0 004.36 1.493c1.832 0 3.659-.703 5.039-2.083a7.104 7.104 0 001.322-8.241zM17.82 4.761a7.242 7.242 0 00-.63-.629.394.394 0 00-.521.59 6.427 6.427 0 01.56.56.393.393 0 00.556.035.394.394 0 00.034-.556z"/><path d="M21.78 10.176a1.337 1.337 0 000-1.397l-.518-.85a.554.554 0 01-.074-.374l.154-.982c.08-.5-.126-.996-.536-1.294l-.803-.584a.555.555 0 01-.213-.318l-.234-.967a1.337 1.337 0 00-.988-.988l-.967-.234a.554.554 0 01-.318-.213l-.584-.803a1.336 1.336 0 00-1.294-.537l-.982.155a.554.554 0 01-.374-.074l-.85-.519a1.337 1.337 0 00-1.398 0l-.85.518a.555.555 0 01-.374.075L9.595.635c-.5-.078-.996.127-1.294.537l-.584.803a.555.555 0 01-.318.212l-.966.234c-.491.12-.87.498-.99.989l-.233.967a.554.554 0 01-.213.317l-.803.585c-.41.298-.615.793-.536 1.294l.154.982a.555.555 0 01-.074.374l-.519.85a1.337 1.337 0 000 1.397l.519.85a.555.555 0 01.074.375l-.154.982c-.08.5.126.996.536 1.293l.803.585c.106.077.182.19.213.317l.234.967c.118.491.497.87.988.989l.404.098-2.732 6.094a.394.394 0 00.406.552l2.198-.262 1.267 1.816a.394.394 0 00.682-.065l2.79-6.224.354.215a1.34 1.34 0 001.398 0l.366-.223 2.794 6.232a.394.394 0 00.682.064l1.267-1.816 2.198.263a.394.394 0 00.406-.552l-2.733-6.098.388-.094c.491-.118.87-.497.989-.988l.234-.967a.555.555 0 01.213-.318l.803-.584c.41-.298.615-.794.536-1.294l-.154-.982a.555.555 0 01.074-.374l.519-.85zM8.224 23.81L7.22 22.37a.394.394 0 00-.37-.165l-1.742.208 2.49-5.553a.549.549 0 01.12.12l.584.804c.055.076.118.145.186.207l-1.31 2.923a.394.394 0 00.719.322L9.2 18.324c.129.017.26.017.394-.004l.982-.154a.553.553 0 01.176 0l-2.53 5.644zm11.686-1.397l-1.742-.208a.394.394 0 00-.37.166l-1.004 1.44-2.53-5.646a.556.556 0 01.16 0l.982.155c.138.022.276.021.409.001l1.306 2.915a.394.394 0 00.72-.322l-1.316-2.934c.064-.059.122-.124.175-.196l.584-.803a.555.555 0 01.133-.13l2.493 5.562zm1.199-12.647l-.519.85c-.165.271-.229.594-.18.907l.155.982a.552.552 0 01-.221.534l-.804.585c-.257.187-.44.46-.515.77l-.234.966a.552.552 0 01-.408.408l-.967.234c-.309.075-.582.258-.77.515l-.584.803a.551.551 0 01-.534.222l-.981-.155a1.344 1.344 0 00-.908.18l-.85.519a.552.552 0 01-.576 0l-.85-.519a1.343 1.343 0 00-.908-.18l-.982.155a.552.552 0 01-.534-.222l-.584-.803a1.344 1.344 0 00-.77-.515l-.967-.234a.552.552 0 01-.408-.408l-.234-.967a1.343 1.343 0 00-.515-.77l-.803-.584a.552.552 0 01-.221-.534l.154-.982a1.343 1.343 0 00-.18-.907l-.518-.85a.552.552 0 010-.577l.519-.85c.165-.271.229-.593.18-.907l-.155-.982a.552.552 0 01.221-.534l.804-.584c.257-.187.44-.46.515-.77l.234-.967a.552.552 0 01.408-.408l.967-.234c.309-.075.582-.258.77-.515l.584-.803a.551.551 0 01.534-.221l.981.154c.314.05.636-.014.908-.18l.85-.518a.552.552 0 01.576 0l.85.518c.272.166.594.23.908.18l.982-.154a.552.552 0 01.534.221l.584.804c.187.257.46.44.77.514l.966.234c.203.05.36.206.409.409l.233.966c.075.31.258.583.515.77l.804.584a.552.552 0 01.221.534l-.154.982c-.05.314.014.636.18.907l.518.85a.552.552 0 010 .577z"/><path d="M17.11 8.252a.705.705 0 00-.593-.487l-2.37-.281-1-2.168a.705.705 0 00-.647-.414.705.705 0 00-.647.414l-1 2.168-2.37.28a.705.705 0 00-.593.488.705.705 0 00.193.742l1.753 1.621-.465 2.342a.705.705 0 00.28.714.709.709 0 00.766.046L12.5 12.55l2.083 1.166c.245.137.539.12.766-.046a.705.705 0 00.28-.714l-.465-2.342 1.752-1.62a.705.705 0 00.194-.743zm-2.643 1.934a.394.394 0 00-.119.367l.476 2.396-2.132-1.194a.393.393 0 00-.385 0l-2.131 1.194.476-2.396a.394.394 0 00-.12-.367L8.74 8.529l2.426-.288a.394.394 0 00.312-.226L12.5 5.796l1.023 2.218c.058.124.175.21.312.226l2.425.288-1.793 1.659z"/></g><defs><clipPath id="mclip0"><path fill="#fff" d="M0 0h25v25H0z"/></clipPath></defs></svg><svg fill="none" viewBox="0 0 25 25" id="tab-icon-5" xmlns="http://www.w3.org/2000/svg"><g clip-path="url(#nclip0)" fill="#000"><path d="M18.068 13.446c2.558 1.904 6.299 4.725 6.3 4.725l.632-.838s-3.743-2.825-6.304-4.73c-2.023-1.503-1.958-3.556-1.904-5.205.007-.239.014-.466.014-.675 0-2.057-1.797-6.302-7.352-6.302-5.11 0-6.08.955-6.258 1.366-.114.259 0 .563.256.684.032.015 3.162 1.495 5.226 2.614.511.277.826.638.963 1.105.289.984-.282 2.242-.648 2.905-1.025 1.858-2.15 2.454-3.539 1.87C3.302 10.061.772 8.885.747 8.873a.532.532 0 00-.517.042.522.522 0 00-.23.464c.01.165.268 4.062 3.337 6.672 1.42 1.208 3.344 1.7 6.642 1.7 2.526 0 4.89 1.958 4.937 1.996l6.302 4.727a.528.528 0 00.736-.105.526.526 0 00-.106-.735l-6.279-4.708c-.107-.091-2.675-2.225-5.59-2.225-3.024 0-4.75-.42-5.963-1.45-1.875-1.595-2.574-3.795-2.827-5.019.939.429 2.475 1.12 3.86 1.702 1.927.812 3.564.026 4.864-2.33.543-.985 1.111-2.427.736-3.71-.216-.738-.71-1.32-1.47-1.733-1.401-.76-3.283-1.68-4.38-2.21.7-.223 2.065-.48 4.655-.48 5.232 0 6.302 4.143 6.302 5.252 0 .199-.007.414-.015.64-.054 1.694-.136 4.251 2.327 6.083z"/><path d="M9.2 7.702L8.996 5.07a2.107 2.107 0 00-1.186-1.73l-2.382-1.14a2.099 2.099 0 00-2.09.162L1.159 3.854a2.1 2.1 0 00-.905 1.891L.458 8.38a2.107 2.107 0 001.186 1.73l2.382 1.139a2.095 2.095 0 002.09-.162l2.178-1.492A2.102 2.102 0 009.2 7.702zM7.7 8.726L5.522 10.22a1.04 1.04 0 01-1.043.08L2.096 9.162a1.053 1.053 0 01-.592-.863l-.205-2.634a1.052 1.052 0 01.453-.944l2.18-1.493a1.05 1.05 0 011.043-.081l2.381 1.14c.338.16.564.49.594.863l.204 2.633c.027.372-.145.734-.453.944z"/><path d="M4.727 4.622c-1.158 0-2.1.943-2.1 2.101 0 1.159.942 2.1 2.1 2.1 1.158 0 2.101-.941 2.101-2.1 0-1.158-.942-2.1-2.1-2.1zm0 3.151a1.051 1.051 0 010-2.1 1.051 1.051 0 010 2.1z"/></g><defs><clipPath id="nclip0"><path fill="#fff" d="M0 0h25v25H0z"/></clipPath></defs></svg><svg fill="none" viewBox="0 0 25 25" id="tab-icon-6" xmlns="http://www.w3.org/2000/svg"><path d="M24.778 5.302a.517.517 0 00-.477-.062l-4.246 1.544a2.068 2.068 0 00-1.18 1.085c-.044.096-.073.195-.102.294-.729-.207-2.084-.64-3.43-1.334-2.035-1.049-3.59-.53-4.923.486-.675.014-1.607.093-2.522.174-.584.052-1.136.099-1.583.126a2.082 2.082 0 00-1.37-1.873L.699 4.198a.52.52 0 00-.699.49v10.416c0 .288.233.521.52.521h1.522c.647 0 1.25-.305 1.638-.798l.71.536c.608.457 1.274.956 1.566 1.2 1.939 1.624 4.27 3.377 4.735 3.682.434.285 1.215.588 1.809.588.232 0 .818 0 1.229-.347.424.166.88.158 1.305-.03.424-.186.766-.538.966-.965.407.083.874.022 1.298-.19.397-.2.69-.5.846-.853.377.035.778-.088 1.138-.363.514-.393.749-.973.683-1.545l1.32-.73a2.087 2.087 0 001.673.857h1.521a.52.52 0 00.52-.521V5.729a.52.52 0 00-.221-.427zm-21.76 8.605a1.047 1.047 0 01-.976.676h-1V5.431l3.547 1.29c.263.096.473.289.59.543.117.255.127.54.03.801l-2.191 5.842zm15.632 3.35c-.177.136-.424.211-.534.101-.005-.005-.014-.005-.02-.01-.01-.01-.015-.022-.026-.03-.372-.294-2.04-2.001-3.071-3.077a.52.52 0 10-.752.72c.242.253 2.185 2.277 2.962 2.984-.058.229-.27.37-.378.424-.333.167-.681.14-.811.018-.004-.003-.01-.003-.014-.007-.006-.005-.01-.013-.016-.019-.624-.499-2.191-2.164-2.546-2.55a.52.52 0 00-.767.706c.017.018 1.553 1.675 2.415 2.444a.915.915 0 01-.479.543c-.163.073-.419.11-.711-.106-.748-.634-2.25-2.232-2.544-2.548a.52.52 0 10-.761.711c.35.375 1.384 1.471 2.17 2.214-.087.01-.18.017-.267.017-.345 0-.937-.22-1.237-.417-.365-.24-2.658-1.951-4.638-3.61-.3-.25-.983-.765-1.609-1.235-.335-.252-.644-.484-.872-.659l1.95-5.201c.506-.022 1.181-.08 1.895-.143.404-.036.809-.07 1.195-.1-.594.609-1.477 1.7-1.36 2.725.053.466.308.854.738 1.122.85.533 2.426.086 3.185-.847a3.62 3.62 0 001.182-.375c.61.574 1.428 1.248 2.288 1.957 1.496 1.232 3.193 2.63 3.641 3.414.25.436-.096.75-.208.835zm.893-1.674c-.694-.929-2.198-2.17-3.664-3.379-.977-.805-1.9-1.565-2.49-2.156a.523.523 0 00-.614-.09c-.53.284-.77.401-1.369.461a.52.52 0 00-.388.24c-.409.649-1.544.957-1.904.732-.204-.128-.244-.258-.255-.357-.05-.443.398-1.21 1.142-1.955 1.843-1.843 3.16-2.203 4.865-1.325a20.208 20.208 0 003.888 1.486c.02.078.034.157.062.233l2.022 5.393-1.295.717zm4.415.042h-1c-.432 0-.824-.272-.976-.676l-2.19-5.842a1.035 1.035 0 01.03-.801c.116-.254.326-.447.59-.543l3.546-1.29v9.152z" fill="#000"/></svg></svg>