<svg width="25" height="25" viewBox="0 0 25 25" fill="none" xmlns="http://www.w3.org/2000/svg">
<path d="M8.33329 20.4166C7.41413 20.4166 6.66663 21.1641 6.66663 22.0833C6.66663 23.0025 7.41413 23.75 8.33329 23.75C9.25246 23.75 9.99996 23.0025 9.99996 22.0833C9.99996 21.1641 9.25246 20.4166 8.33329 20.4166ZM8.33329 22.9166C7.87371 22.9166 7.49996 22.5429 7.49996 22.0833C7.49996 21.6237 7.87371 21.25 8.33329 21.25C8.79288 21.25 9.16663 21.6237 9.16663 22.0833C9.16663 22.5429 8.79288 22.9166 8.33329 22.9166Z" fill="black"/>
<path d="M7.08329 2.08333H8.74996C8.97996 2.08333 9.16663 1.89708 9.16663 1.66667C9.16663 1.43625 8.97996 1.25 8.74996 1.25H7.08329C6.85329 1.25 6.66663 1.43625 6.66663 1.66667C6.66663 1.89708 6.85329 2.08333 7.08329 2.08333Z" fill="black"/>
<path d="M9.99992 2.08333H10.4166C10.6466 2.08333 10.8333 1.89708 10.8333 1.66667C10.8333 1.43625 10.6466 1.25 10.4166 1.25H9.99992C9.76992 1.25 9.58325 1.43625 9.58325 1.66667C9.58325 1.89708 9.76992 2.08333 9.99992 2.08333Z" fill="black"/>
<path d="M23.3333 5H15.8333V1.83542C15.8333 0.82375 15.01 0 13.9979 0H3.50204C2.48996 0 1.66663 0.82375 1.66663 1.83542V23.1642C1.66663 24.1763 2.48996 25 3.50204 25H13.9975C15.01 25 15.8333 24.1763 15.8333 23.1646V13.75H23.3333V5ZM3.50204 0.833333H13.9975C14.5504 0.833333 15 1.28292 15 1.83542V2.5H2.49996V1.83542C2.49996 1.28292 2.94954 0.833333 3.50204 0.833333ZM13.9979 24.1667H3.50204C2.94954 24.1667 2.49996 23.7171 2.49996 23.1646V20H15V23.1646C15 23.7171 14.5504 24.1667 13.9979 24.1667ZM15 19.1667H2.49996V3.33333H15V5H7.49996V13.75H9.16663V16.6667L13.0554 13.75H15V19.1667ZM22.5 12.9167H15.8333H12.7779L9.99996 15V12.9167H8.33329V5.83333H15.8333H22.5V12.9167Z" fill="black"/>
<path d="M10.4167 8.74996H14.5833C14.8133 8.74996 15 8.56371 15 8.33329C15 8.10288 14.8133 7.91663 14.5833 7.91663H10.4167C10.1867 7.91663 10 8.10288 10 8.33329C10 8.56371 10.1867 8.74996 10.4167 8.74996Z" fill="black"/>
<path d="M10 10.4167C10 10.6471 10.1867 10.8333 10.4167 10.8333H20.4167C20.6467 10.8333 20.8333 10.6471 20.8333 10.4167C20.8333 10.1862 20.6467 10 20.4167 10H10.4167C10.1867 10 10 10.1862 10 10.4167Z" fill="black"/>
</svg>
