<svg width="25" height="25" viewBox="0 0 25 25" fill="none" xmlns="http://www.w3.org/2000/svg">
<g clip-path="url(#clip0)">
<path d="M24.8368 5.14715L19.8532 0.163556C19.6489 -0.0405945 19.3254 -0.0524109 19.1072 0.127911C19.1051 0.12962 19.1032 0.131573 19.1011 0.133282C19.0898 0.14295 19.0784 0.152765 19.0676 0.163507L19.0669 0.164288C19.0667 0.164435 19.0665 0.16463 19.0663 0.164777L17.3369 1.89422L17.3369 1.89427L15.6316 3.59964C15.6315 3.59969 15.6315 3.59969 15.6315 3.59969L13.902 5.32908C13.9017 5.32938 13.9016 5.32962 13.9013 5.32986L12.6068 6.62435L9.36169 3.37278C9.3616 3.37269 9.36145 3.37254 9.36135 3.37244C9.36135 3.37244 9.3613 3.37244 9.3613 3.37239L7.42283 1.43392C6.76174 0.77298 5.88274 0.408917 4.94778 0.408917C4.01282 0.408917 3.13386 0.77298 2.47283 1.43406L1.95276 1.95408L1.43274 2.47415C0.771606 3.13528 0.407544 4.01419 0.407544 4.94915C0.407544 5.88401 0.771606 6.76297 1.43269 7.42405L3.37126 9.36263C3.37136 9.36273 3.37151 9.36287 3.37161 9.36297L3.37165 9.36302L6.62317 12.6081L0.162183 19.069C-0.0547119 19.2859 -0.0547119 19.6376 0.162183 19.8545L5.14583 24.8382C5.25427 24.9466 5.39641 25.0009 5.53855 25.0009C5.68069 25.0009 5.82288 24.9466 5.93127 24.8382L12.398 18.3716L17.1612 23.1254C17.1628 23.127 17.1646 23.1283 17.1662 23.1299C17.1828 23.1475 17.199 23.1654 17.2162 23.1825C17.4167 23.3829 17.8148 23.6105 19.3573 23.9154C19.3573 23.9154 19.3574 23.9154 19.3575 23.9154C21.2705 24.2934 23.8665 24.5776 23.9761 24.5896C23.9962 24.5917 24.0162 24.5928 24.0362 24.5928C24.1827 24.5928 24.3242 24.5348 24.4289 24.4302C24.5479 24.3111 24.6065 24.1446 24.5883 23.9774C24.5763 23.8678 24.2922 21.2718 23.9141 19.3588C23.9141 19.3587 23.9141 19.3587 23.9141 19.3586C23.6092 17.8162 23.3817 17.418 23.1813 17.2176C23.1638 17.2001 23.1458 17.1837 23.128 17.1669C23.1266 17.1656 23.1255 17.164 23.124 17.1625L18.3703 12.3993L24.8369 5.93265C25.0537 5.71575 25.0537 5.36409 24.8368 5.14715ZM19.4591 1.3431L22.1494 4.03338L21.2054 4.97732L18.5152 2.28704L19.4591 1.3431ZM16.0241 4.77801L17.7366 6.49056L16.7927 7.4345L15.0802 5.72195L16.0241 4.77801ZM2.21814 6.63851C1.76692 6.18724 1.51838 5.58729 1.51838 4.9491C1.51838 4.31087 1.76692 3.71092 2.21819 3.25965L2.73826 2.73958L3.25833 2.21956C3.70959 1.76829 4.30959 1.51976 4.94778 1.51976C5.58601 1.51976 6.18596 1.76829 6.63723 2.21956L8.18303 3.76531L3.76389 8.18436L2.21814 6.63851ZM5.72024 15.082L8.41052 17.7722L7.46658 18.7162L4.77629 16.0259L5.72024 15.082ZM1.34128 19.4609L2.28523 18.5169L3.99778 20.2295L3.05383 21.1734L1.34128 19.4609ZM5.5386 23.6599L3.8385 21.9598L5.176 20.6223C5.28015 20.5181 5.3387 20.3768 5.3387 20.2296C5.3387 20.0823 5.28015 19.941 5.176 19.8368L3.07068 17.7314L3.9907 16.8114L7.07375 19.8945C7.17791 19.9987 7.31921 20.0572 7.46648 20.0572C7.61374 20.0572 7.75505 19.9987 7.8592 19.8945L9.5886 18.1651C9.80549 17.9482 9.80549 17.5965 9.5886 17.3796L6.50554 14.2965L7.4053 13.3968L11.6035 17.5949L5.5386 23.6599ZM19.2836 22.7664C18.2845 22.5543 18.035 22.4154 17.9915 22.3867C17.977 22.3719 17.9632 22.3568 17.9494 22.3415C17.9437 22.3351 17.9382 22.3287 17.9325 22.3222C17.9217 22.3097 17.9111 22.2972 17.9008 22.2845C17.8971 22.28 17.8935 22.2755 17.8899 22.2709C17.8776 22.2553 17.8655 22.2395 17.854 22.2235C17.8531 22.2222 17.8521 22.2208 17.8511 22.2195C17.4656 21.6823 17.4989 20.9352 17.9511 20.4344C17.9512 20.4343 17.9514 20.4341 17.9515 20.4339C17.9677 20.4159 17.9844 20.3984 18.0017 20.3811C18.317 20.0657 18.7522 19.9198 19.1889 19.9758L20.6315 21.4184L19.2836 22.7664ZM23.403 23.4043C22.7243 23.3217 21.6445 23.1817 20.6094 23.0115L23.0102 20.6108C23.1803 21.6456 23.3203 22.7255 23.403 23.4043ZM22.2161 17.851C22.2188 17.8529 22.2215 17.8547 22.2241 17.8567C22.2386 17.8672 22.2529 17.8781 22.267 17.8893C22.2731 17.8941 22.2792 17.8989 22.2853 17.9038C22.2962 17.9127 22.307 17.9219 22.3176 17.9311C22.326 17.9383 22.3343 17.9455 22.3426 17.953C22.357 17.9659 22.3713 17.9791 22.3853 17.9928C22.4141 18.0364 22.553 18.2858 22.7651 19.2849L21.4171 20.6329L19.9745 19.1903C19.9651 19.1172 19.9607 19.0441 19.9625 18.9717C19.9717 18.6113 20.1172 18.2656 20.3798 18.003C20.397 17.9858 20.4145 17.9691 20.4324 17.9529C20.4332 17.9522 20.434 17.9516 20.4348 17.9509C20.9349 17.5007 21.6797 17.4674 22.2161 17.851ZM20.9105 16.5172C20.5109 16.594 20.1263 16.7683 19.7934 17.0386C19.7874 17.0434 19.7815 17.0484 19.7756 17.0534C19.7515 17.0733 19.7278 17.0937 19.7043 17.1145C19.6961 17.1219 19.6879 17.129 19.6797 17.1365C19.6523 17.1615 19.6253 17.187 19.5988 17.2135C19.5973 17.2149 19.5958 17.2162 19.5944 17.2176C19.3121 17.4999 19.106 17.836 18.9833 18.1992L9.49011 8.70599C9.27322 8.48914 8.92156 8.48914 8.70461 8.70599C8.48772 8.92288 8.48772 9.27454 8.70461 9.49148L18.1977 18.9846C17.9783 19.0588 17.7687 19.1632 17.5749 19.2968C17.448 19.3842 17.3278 19.484 17.2161 19.5957C17.2148 19.597 17.2135 19.5985 17.2121 19.5999C17.1856 19.6265 17.16 19.6537 17.1349 19.6812C17.1276 19.6892 17.1205 19.6973 17.1134 19.7054C17.0921 19.7292 17.0714 19.7533 17.0512 19.7777C17.0467 19.7832 17.042 19.7887 17.0375 19.7943C16.7669 20.1274 16.5925 20.512 16.5157 20.9118L4.54983 8.96946L6.75896 6.76033L8.96809 4.5512L20.9105 16.5172ZM17.5935 11.6049L13.3954 7.40677L14.2947 6.50745L16.4 8.61273C16.5084 8.72112 16.6506 8.77542 16.7927 8.77542C16.9348 8.77542 17.077 8.72117 17.1854 8.61273L18.9149 6.88333C19.019 6.77918 19.0776 6.63787 19.0776 6.49061C19.0776 6.34334 19.019 6.20208 18.9149 6.09788L16.8096 3.99256L17.7296 3.07254L20.8127 6.1556C20.9211 6.26399 21.0633 6.31829 21.2054 6.31829C21.3475 6.31829 21.4897 6.26404 21.5981 6.1556L22.9361 4.81766L23.6584 5.53997L17.5935 11.6049Z" fill="black"/>
<path d="M8.4915 7.83835C8.48491 7.80334 8.47373 7.76838 8.45986 7.73454C8.44599 7.70114 8.42876 7.66896 8.40874 7.63893C8.38877 7.60837 8.36543 7.58005 8.33989 7.55451C8.31435 7.52897 8.28603 7.50563 8.25547 7.48561C8.22549 7.46564 8.19326 7.44841 8.15937 7.43454C8.12607 7.42067 8.09106 7.40954 8.05552 7.4029C7.98389 7.38845 7.91055 7.38845 7.83892 7.4029C7.80337 7.40954 7.76836 7.42067 7.73506 7.43454C7.70117 7.44841 7.66894 7.46564 7.63896 7.48561C7.6084 7.50558 7.58008 7.52892 7.55454 7.55451C7.529 7.58005 7.50566 7.60837 7.48569 7.63893C7.46514 7.66891 7.44849 7.70114 7.43457 7.73454C7.4207 7.76838 7.40957 7.80334 7.40293 7.83835C7.3957 7.87443 7.39185 7.91115 7.39185 7.94728C7.39185 7.98332 7.39575 8.02004 7.40293 8.05554C7.40962 8.09113 7.4207 8.12614 7.43457 8.15939C7.44844 8.19328 7.46514 8.22551 7.48569 8.25549C7.50566 8.28605 7.529 8.31437 7.55454 8.33991C7.58008 8.36545 7.6084 8.38879 7.63896 8.40881C7.66894 8.42878 7.70117 8.44601 7.73506 8.45988C7.76836 8.47375 7.80337 8.48434 7.83892 8.49152C7.87446 8.49875 7.91113 8.50266 7.94722 8.50266C7.9833 8.50266 8.01997 8.49875 8.05552 8.49152C8.09106 8.4843 8.12607 8.47375 8.15937 8.45988C8.19326 8.44601 8.22549 8.42878 8.25547 8.40881C8.28603 8.38884 8.31435 8.3655 8.33989 8.33991C8.36543 8.31437 8.38877 8.28605 8.40874 8.25549C8.42876 8.22551 8.44594 8.19328 8.45986 8.15939C8.47373 8.12609 8.48486 8.09113 8.4915 8.05554C8.49873 8.01999 8.50258 7.98332 8.50258 7.94728C8.50263 7.91115 8.49873 7.87443 8.4915 7.83835Z" fill="black"/>
</g>
<defs>
<clipPath id="clip0">
<rect width="25" height="25" fill="white"/>
</clipPath>
</defs>
</svg>
